Hanif_Deep_7_5_grf.mot
version=1
nRows=32
nColumns=19
inDegrees=yes
endheader
time	right_ground_force_vx	right_ground_force_vy	right_ground_force_vz	right_ground_force_px	right_ground_force_py	right_ground_force_pz	right_ground_torque_x	right_ground_torque_y	right_ground_torque_z	left_ground_force_vx	left_ground_force_vy	left_ground_force_vz	left_ground_force_px	left_ground_force_py	left_ground_force_pz	left_ground_torque_x	left_ground_torque_y	left_ground_torque_z
5.300000	-19.937700	295.073000	44.964100	0.232369	0.000000	-1.418890	-25.711000	-3.083410	9.567710	7.862360	331.100000	-49.256600	0.220302	0.000000	-1.011250	35.722100	-4.946940	7.480070
5.305000	-19.683600	294.104000	45.354300	0.232528	0.000000	-1.418340	-25.788500	-3.086490	9.584380	7.605720	331.344000	-49.279000	0.220841	0.000000	-1.010170	35.391000	-4.969430	7.676110
5.310000	-18.738600	292.717000	45.380400	0.232550	0.000000	-1.417860	-25.803600	-3.073910	9.536530	6.498440	331.116000	-48.875800	0.221275	0.000000	-1.010440	35.473500	-4.899870	7.818190
5.315000	-17.749700	292.314000	45.400300	0.232371	0.000000	-1.417540	-25.860200	-3.025000	9.464710	5.249940	331.575000	-49.063400	0.221560	0.000000	-1.010860	35.681300	-4.687730	7.915310
5.320000	-16.457700	289.299000	45.018100	0.232688	0.000000	-1.417080	-25.725000	-2.930870	9.457200	4.375130	332.426000	-50.007400	0.221977	0.000000	-1.010470	35.658700	-4.507900	8.078290
5.325000	-15.181900	287.990000	44.991000	0.231377	0.000000	-1.417330	-25.529100	-2.912750	9.012010	4.489250	328.960000	-50.838200	0.222316	0.000000	-1.011360	35.575100	-4.588070	8.150180
5.330000	-14.348200	284.478000	44.960800	0.231907	0.000000	-1.417090	-25.290800	-2.759420	9.069050	5.145710	327.374000	-51.897500	0.222054	0.000000	-1.011180	35.332400	-4.611120	8.044070
5.335000	-13.124000	281.004000	45.412200	0.231670	0.000000	-1.415760	-25.352500	-2.738870	8.880550	5.709050	328.518000	-53.245700	0.221361	0.000000	-1.010220	35.135000	-4.611130	7.849970
5.340000	-12.391500	281.571000	45.906400	0.230763	0.000000	-1.415790	-25.392600	-2.690310	8.635890	6.415610	327.169000	-54.308600	0.220851	0.000000	-1.009780	34.834400	-4.646820	7.667520
5.345000	-10.809100	277.670000	45.878500	0.231287	0.000000	-1.415800	-25.039700	-2.597070	8.656570	7.176430	326.987000	-55.263500	0.220094	0.000000	-1.009390	34.680200	-4.613890	7.408990
5.350000	-9.865240	275.780000	46.235700	0.230870	0.000000	-1.415330	-24.995900	-2.549150	8.475350	7.520330	323.352000	-56.369300	0.219016	0.000000	-1.009690	34.381400	-4.733030	7.021060
5.355000	-8.751390	274.104000	46.112700	0.231386	0.000000	-1.415340	-24.841300	-2.500810	8.559330	8.157360	324.787000	-57.349800	0.217645	0.000000	-1.008220	34.047800	-4.824820	6.609930
5.360000	-8.490350	273.369000	46.268500	0.230898	0.000000	-1.415380	-24.767500	-2.376290	8.416490	8.707090	322.573000	-57.663900	0.216987	0.000000	-1.008380	33.859100	-4.848750	6.357370
5.365000	-8.381160	269.854000	46.806700	0.231264	0.000000	-1.414490	-24.688000	-2.434570	8.401390	9.097150	319.931000	-59.605100	0.215739	0.000000	-1.008410	33.583500	-4.962880	5.956170
5.370000	-7.930890	268.234000	46.907900	0.230728	0.000000	-1.414940	-24.420200	-2.354980	8.208870	9.115000	317.769000	-60.028200	0.215182	0.000000	-1.008070	33.248800	-4.914550	5.744000
5.375000	-7.855870	265.982000	47.191500	0.231050	0.000000	-1.414850	-24.241300	-2.323150	8.233690	9.106290	315.457000	-61.249200	0.214260	0.000000	-1.007810	32.923800	-4.873650	5.428870
5.380000	-8.103290	263.448000	47.966900	0.230356	0.000000	-1.415920	-23.725800	-2.382110	7.961490	8.833840	314.490000	-62.385600	0.214141	0.000000	-1.006950	32.556100	-4.899840	5.411970
5.385000	-8.275810	259.102000	48.649400	0.230519	0.000000	-1.413760	-23.895000	-2.359420	7.886590	8.620580	313.574000	-63.192500	0.213418	0.000000	-1.006400	32.294600	-4.761350	5.158150
5.390000	-8.437670	259.813000	48.875300	0.230189	0.000000	-1.414670	-23.726000	-2.348490	7.824350	8.706730	309.212000	-64.314100	0.213596	0.000000	-1.006870	31.986500	-4.750190	5.185710
5.395000	-7.827430	255.633000	49.473700	0.230426	0.000000	-1.414120	-23.485600	-2.300000	7.763410	8.472060	307.718000	-65.078400	0.212733	0.000000	-1.006590	31.747700	-4.694940	4.900640
5.400000	-8.059140	254.472000	49.812900	0.230044	0.000000	-1.414740	-23.225100	-2.207670	7.650100	7.979460	305.274000	-65.751500	0.212537	0.000000	-1.006120	31.358900	-4.597730	4.817730
5.405000	-7.703240	250.751000	50.034300	0.229887	0.000000	-1.414340	-22.985800	-2.178900	7.498710	7.883890	302.382000	-66.473500	0.212650	0.000000	-1.005530	30.883100	-4.532090	4.828450
5.410000	-7.513600	249.330000	50.091600	0.230327	0.000000	-1.414140	-22.905300	-2.161090	7.571110	7.078960	300.687000	-67.594800	0.211981	0.000000	-1.004540	30.425400	-4.456060	4.624830
5.415000	-7.703180	249.903000	50.891300	0.229872	0.000000	-1.415320	-22.665700	-2.062760	7.496940	6.945840	296.729000	-68.271000	0.211828	0.000000	-1.004220	29.928700	-4.479230	4.564340
5.420000	-7.089070	248.534000	51.529200	0.229138	0.000000	-1.414350	-22.785400	-1.925680	7.288450	7.036280	294.329000	-68.951700	0.211440	0.000000	-1.003840	29.570900	-4.448060	4.427860
5.425000	-6.440020	245.437000	51.822600	0.229714	0.000000	-1.415610	-22.189200	-1.950280	7.329190	6.759480	291.147000	-69.416900	0.210919	0.000000	-1.003670	29.207000	-4.405860	4.248110
5.430000	-5.937740	242.856000	52.729200	0.228256	0.000000	-1.414650	-22.191700	-1.789070	6.915090	6.270290	288.578000	-69.592200	0.210707	0.000000	-1.004020	29.055400	-4.344400	4.164440
5.435000	-5.539510	241.458000	53.113400	0.228105	0.000000	-1.415520	-21.853400	-1.704630	6.849690	5.703980	285.021000	-69.275300	0.210845	0.000000	-1.004190	28.753500	-4.242650	4.164500
5.440000	-5.482730	237.632000	53.948200	0.226666	0.000000	-1.415330	-21.553400	-1.578710	6.417790	5.063980	284.304000	-69.298800	0.210538	0.000000	-1.003920	28.612300	-4.189900	4.070570
5.445000	-5.375870	235.325000	53.959600	0.227094	0.000000	-1.415480	-21.309300	-1.602030	6.455460	4.275310	281.544000	-68.539600	0.211291	0.000000	-1.003870	28.332000	-4.147760	4.272010
5.450000	-5.513100	233.456000	54.305100	0.226528	0.000000	-1.415690	-21.093800	-1.536730	6.286590	3.196900	279.080000	-68.402900	0.211479	0.000000	-1.004550	28.289000	-3.973920	4.290330
5.455000	-4.927810	232.989000	54.956500	0.226300	0.000000	-1.415960	-20.986500	-1.523230	6.213910	2.604350	277.502000	-68.218300	0.211081	0.000000	-1.004190	28.040100	-3.924210	4.160860
